<svg width="64" height="64" viewBox="0 0 64 64" fill="none" xmlns="http://www.w3.org/2000/svg">
<path d="M10 10C10 7.79086 11.7909 6 14 6H46C48.2091 6 50 7.79086 50 10V47C50 49.2091 48.2091 51 46 51H14C11.7909 51 10 49.2091 10 47V10Z" fill="#2FBA6C"/>
<path d="M10 36H50V47C50 49.2091 48.2091 51 46 51H14C11.7909 51 10 49.2091 10 47V36Z" fill="#2CAD65"/>
<path d="M10 10C10 7.79086 11.7909 6 14 6H46C48.2091 6 50 7.79086 50 10V21H10V10Z" fill="#32C773"/>
<g filter="url(#filter0_d_1029_9598)">
<path d="M33 38C33 35.7909 34.7909 34 37 34H53C55.2091 34 57 35.7909 57 38V54C57 56.2091 55.2091 58 53 58H37C34.7909 58 33 56.2091 33 54V38Z" fill="url(#paint0_linear_1029_9598)"/>
</g>
<path d="M52.0318 47.0322L47.9995 43M52.0318 47.0322L47.9995 51M52.0318 47.0322L41.0317 47.0322C39.9272 47.0322 39.0317 46.1368 39.0317 45.0322L39.0317 41" stroke="white" stroke-width="2.5" stroke-linecap="round" stroke-linejoin="round"/>
<path d="M20.0796 16.752C20.8916 16.752 21.601 16.892 22.2076 17.172C22.8143 17.452 23.281 17.8487 23.6076 18.362C23.9436 18.866 24.1116 19.4587 24.1116 20.14C24.1116 20.812 23.9436 21.4047 23.6076 21.918C23.281 22.422 22.8143 22.814 22.2076 23.094C21.601 23.3647 20.8916 23.5 20.0796 23.5H18.5816V27H16.5516V16.752H20.0796ZM19.8556 21.778C20.4903 21.778 20.999 21.6427 21.3816 21.372C21.7643 21.092 21.9556 20.6813 21.9556 20.14C21.9556 19.5987 21.7643 19.188 21.3816 18.908C20.999 18.6187 20.4903 18.474 19.8556 18.474H18.5816V21.778H19.8556ZM32.0177 16.752H34.0477V22.856C34.0477 23.7333 33.875 24.4987 33.5297 25.152C33.1844 25.796 32.685 26.2953 32.0317 26.65C31.3784 26.9953 30.6037 27.168 29.7077 27.168C28.8024 27.168 28.023 26.9953 27.3697 26.65C26.7164 26.2953 26.217 25.796 25.8717 25.152C25.5264 24.4987 25.3537 23.7333 25.3537 22.856V16.752H27.3837V22.366C27.3837 23.3553 27.5844 24.0927 27.9857 24.578C28.3964 25.0633 28.9704 25.306 29.7077 25.306C30.4357 25.306 31.0004 25.0633 31.4017 24.578C31.8124 24.0927 32.0177 23.3553 32.0177 22.366V16.752ZM42.3467 21.68C43.4761 22.0813 44.0407 22.87 44.0407 24.046C44.0407 24.97 43.7001 25.6933 43.0187 26.216C42.3467 26.7387 41.3994 27 40.1767 27H36.0887V16.752H39.7987C40.8907 16.752 41.7774 17.004 42.4587 17.508C43.1494 18.0027 43.4947 18.7027 43.4947 19.608C43.4947 20.5507 43.1121 21.2413 42.3467 21.68ZM38.0767 18.516V20.938H39.6027C40.1534 20.938 40.5874 20.826 40.9047 20.602C41.2314 20.3687 41.3947 20.0607 41.3947 19.678C41.3947 19.3047 41.2361 19.02 40.9187 18.824C40.6014 18.6187 40.1627 18.516 39.6027 18.516H38.0767ZM40.0087 25.236C40.6247 25.236 41.0961 25.124 41.4227 24.9C41.7587 24.676 41.9267 24.3587 41.9267 23.948C41.9267 23.5373 41.7587 23.2153 41.4227 22.982C41.0961 22.7487 40.6201 22.632 39.9947 22.632H38.0767V25.236H40.0087Z" fill="white"/>
<defs>
<filter id="filter0_d_1029_9598" x="30" y="32" width="30" height="30" filterUnits="userSpaceOnUse" color-interpolation-filters="sRGB">
<feFlood flood-opacity="0" result="BackgroundImageFix"/>
<feColorMatrix in="SourceAlpha" type="matrix" values="0 0 0 0 0 0 0 0 0 0 0 0 0 0 0 0 0 0 127 0" result="hardAlpha"/>
<feOffset dy="1"/>
<feGaussianBlur stdDeviation="1.5"/>
<feComposite in2="hardAlpha" operator="out"/>
<feColorMatrix type="matrix" values="0 0 0 0 0.114423 0 0 0 0 0.51 0 0 0 0 0.287692 0 0 0 0.4 0"/>
<feBlend mode="normal" in2="BackgroundImageFix" result="effect1_dropShadow_1029_9598"/>
<feBlend mode="normal" in="SourceGraphic" in2="effect1_dropShadow_1029_9598" result="shape"/>
</filter>
<linearGradient id="paint0_linear_1029_9598" x1="45" y1="34" x2="45" y2="58" gradientUnits="userSpaceOnUse">
<stop stop-color="#34CD78"/>
<stop offset="1" stop-color="#229956"/>
</linearGradient>
</defs>
</svg>
