<svg width="64" height="64" viewBox="0 0 64 64" fill="none" xmlns="http://www.w3.org/2000/svg">
<path d="M50 11C50 8.79086 48.2091 7 46 7H14C11.7909 7 10 8.79086 10 11V48C10 50.2091 11.7909 52 14 52H46C48.2091 52 50 50.2091 50 48V11Z" fill="#2DB49B"/>
<path d="M10 11C10 8.79086 11.7909 7 14 7H46C48.2091 7 50 8.79086 50 11V22H10V11Z" fill="#30C0A8"/>
<path d="M10 48C10 50.2091 11.7909 52 14 52H46C48.2091 52 50 50.2091 50 48V37H10V48Z" fill="#2AAA93"/>
<g filter="url(#filter0_d_1029_9456)">
<path d="M34 38C34 35.7909 35.7909 34 38 34H54C56.2091 34 58 35.7909 58 38V54C58 56.2091 56.2091 58 54 58H38C35.7909 58 34 56.2091 34 54V38Z" fill="url(#paint0_linear_1029_9456)"/>
</g>
<path d="M53.0318 47.0322L48.9995 43M53.0318 47.0322L48.9995 51M53.0318 47.0322L42.0317 47.0322C40.9272 47.0322 40.0317 46.1368 40.0317 45.0322L40.0317 41" stroke="white" stroke-width="2.5" stroke-linecap="round" stroke-linejoin="round"/>
<path d="M26.6564 27L24.2344 26.986L21.7424 23.304H21.6584H20.1744V27H18.1444V16.752H21.6864C22.4891 16.752 23.1937 16.8873 23.8004 17.158C24.4071 17.4287 24.8737 17.816 25.2004 18.32C25.5271 18.8147 25.6904 19.384 25.6904 20.028C25.6904 20.6813 25.5224 21.2553 25.1864 21.75C24.8504 22.2447 24.3791 22.6227 23.7724 22.884L26.6564 27ZM20.1744 18.474V21.582H21.4484C22.0457 21.582 22.5404 21.456 22.9324 21.204C23.3337 20.9427 23.5344 20.5507 23.5344 20.028C23.5344 19.496 23.3384 19.104 22.9464 18.852C22.5544 18.6 22.0551 18.474 21.4484 18.474H20.1744ZM26.4343 16.752H34.6943V18.558H31.5863V27H29.5423V18.558H26.4343V16.752ZM35.9042 16.752H42.5822V18.53H37.9342V21.148H42.0922V22.912H37.9342V27H35.9042V16.752Z" fill="white"/>
<defs>
<filter id="filter0_d_1029_9456" x="30" y="30" width="32" height="32" filterUnits="userSpaceOnUse" color-interpolation-filters="sRGB">
<feFlood flood-opacity="0" result="BackgroundImageFix"/>
<feColorMatrix in="SourceAlpha" type="matrix" values="0 0 0 0 0 0 0 0 0 0 0 0 0 0 0 0 0 0 127 0" result="hardAlpha"/>
<feOffset/>
<feGaussianBlur stdDeviation="2"/>
<feComposite in2="hardAlpha" operator="out"/>
<feColorMatrix type="matrix" values="0 0 0 0 0.114423 0 0 0 0 0.51 0 0 0 0 0.287692 0 0 0 0.4 0"/>
<feBlend mode="normal" in2="BackgroundImageFix" result="effect1_dropShadow_1029_9456"/>
<feBlend mode="normal" in="SourceGraphic" in2="effect1_dropShadow_1029_9456" result="shape"/>
</filter>
<linearGradient id="paint0_linear_1029_9456" x1="46" y1="34" x2="46" y2="58" gradientUnits="userSpaceOnUse">
<stop offset="0.0610702" stop-color="#2DCDB0"/>
<stop offset="1" stop-color="#1D8E7A"/>
</linearGradient>
</defs>
</svg>
